# 3ds Max Wavefront OBJ Exporter v0.97b - (c)2007 guruware
# File Created: 15.04.2021 18:08:52

mtllib Concrete_fence.mtl

#
# object Concrete_fence
#

v  -2480.1147 601.2401 -90.1861
v  -2392.4338 601.2401 -90.1861
v  -2392.4338 0.0000 -90.1862
v  -2480.1147 0.0000 -90.1862
v  -651.3433 75.1550 -135.7236
v  -651.3433 526.0850 -135.7235
v  951.9633 526.0850 -135.7235
v  951.9633 75.1550 -135.7236
v  1102.2732 526.0850 -135.7235
v  2617.8989 526.0850 -135.7235
v  2617.8989 75.1550 -135.7236
v  1102.2732 75.1550 -135.7236
v  -2480.1147 1202.4800 -90.1861
v  -2392.4338 1202.4800 -90.1861
v  -651.3433 676.3950 -135.7234
v  -651.3433 1127.3250 -135.7232
v  951.9633 1127.3250 -135.7232
v  951.9633 676.3950 -135.7234
v  1102.2732 1127.3250 -135.7232
v  2617.8989 1127.3250 -135.7232
v  2617.8989 676.3950 -135.7234
v  1102.2732 676.3950 -135.7234
v  -2480.1147 1803.7200 -90.1860
v  -2392.4338 1803.7200 -90.1860
v  -651.3433 1277.6350 -135.7231
v  -651.3433 1728.5649 -135.7230
v  951.9633 1728.5649 -135.7230
v  951.9633 1277.6350 -135.7231
v  1102.2732 1728.5649 -135.7230
v  2617.8989 1728.5649 -135.7230
v  2617.8989 1277.6350 -135.7231
v  1102.2732 1277.6350 -135.7231
v  -2480.1147 2404.9600 -90.1859
v  -2392.4338 2404.9600 -90.1859
v  -651.3433 1878.8750 -135.7229
v  -651.3433 2329.8049 -135.7228
v  951.9633 2329.8049 -135.7228
v  951.9633 1878.8750 -135.7229
v  1102.2732 2329.8049 -135.7228
v  2617.8989 2329.8049 -135.7228
v  2617.8989 1878.8750 -135.7229
v  1102.2732 1878.8750 -135.7229
v  -2480.1147 3006.2000 -90.1858
v  -2392.4338 3006.2000 -90.1858
v  -651.3433 2480.1150 -135.7227
v  -651.3433 2931.0449 -135.7226
v  951.9633 2931.0449 -135.7226
v  951.9633 2480.1150 -135.7227
v  1102.2732 2931.0449 -135.7226
v  2617.8989 2931.0449 -135.7226
v  2617.8989 2480.1150 -135.7227
v  1102.2732 2480.1150 -135.7227
v  -2392.4338 0.0000 90.1858
v  -2392.4338 601.2401 90.1858
v  -2480.1147 601.2401 90.1858
v  -2480.1147 0.0000 90.1858
v  -651.3433 75.1550 135.7226
v  951.9633 75.1550 135.7226
v  951.9633 526.0850 135.7227
v  -651.3433 526.0850 135.7227
v  2617.8989 75.1550 135.7226
v  2617.8989 526.0850 135.7227
v  1102.2732 526.0850 135.7227
v  1102.2732 75.1550 135.7226
v  -2392.4338 1202.4800 90.1860
v  -2480.1147 1202.4800 90.1860
v  -651.3433 676.3950 135.7228
v  951.9633 676.3950 135.7228
v  951.9633 1127.3250 135.7230
v  -651.3433 1127.3250 135.7230
v  2617.8989 676.3950 135.7228
v  2617.8989 1127.3250 135.7230
v  1102.2732 1127.3250 135.7230
v  1102.2732 676.3950 135.7228
v  -2392.4338 1803.7200 90.1860
v  -2480.1147 1803.7200 90.1860
v  -651.3433 1277.6350 135.7230
v  951.9633 1277.6350 135.7230
v  951.9633 1728.5649 135.7231
v  -651.3433 1728.5649 135.7231
v  2617.8989 1277.6350 135.7230
v  2617.8989 1728.5649 135.7231
v  1102.2732 1728.5649 135.7231
v  1102.2732 1277.6350 135.7230
v  -2392.4338 2404.9600 90.1861
v  -2480.1147 2404.9600 90.1861
v  -651.3433 1878.8749 135.7232
v  951.9633 1878.8749 135.7232
v  951.9633 2329.8049 135.7233
v  -651.3433 2329.8049 135.7233
v  2617.8989 1878.8749 135.7232
v  2617.8989 2329.8049 135.7233
v  1102.2732 2329.8049 135.7233
v  1102.2732 1878.8749 135.7232
v  -2392.4338 3006.2000 90.1862
v  -2480.1147 3006.2000 90.1862
v  -651.3433 2480.1147 135.7235
v  951.9633 2480.1147 135.7235
v  951.9633 2931.0449 135.7236
v  -651.3433 2931.0449 135.7236
v  2617.8989 2480.1147 135.7235
v  2617.8989 2931.0449 135.7236
v  1102.2732 2931.0449 135.7236
v  1102.2732 2480.1147 135.7235
v  -2392.4338 0.0000 -60.1242
v  -2392.4338 0.0000 60.1237
v  -2480.1147 0.0000 60.1237
v  -2480.1147 0.0000 -60.1242
v  -726.4983 0.0000 -60.1242
v  1027.1183 0.0000 -60.1242
v  1027.1183 0.0000 60.1237
v  -726.4983 0.0000 60.1237
v  2693.0540 0.0000 -60.1242
v  2693.0540 0.0000 60.1237
v  2780.7346 0.0000 -60.1242
v  2780.7346 601.2401 -60.1241
v  2780.7346 601.2401 60.1238
v  2780.7346 0.0000 60.1237
v  2780.7346 1202.4800 -60.1241
v  2780.7346 1202.4800 60.1239
v  2780.7346 1803.7200 -60.1240
v  2780.7346 1803.7200 60.1240
v  2780.7346 2404.9600 -60.1239
v  2780.7346 2404.9600 60.1241
v  2780.7346 3006.2000 -60.1238
v  2780.7346 3006.2000 60.1242
v  2693.0540 3006.2000 -60.1238
v  2693.0540 3006.2000 60.1242
v  1027.1183 3006.2000 -60.1238
v  -726.4983 3006.2000 -60.1238
v  -726.4983 3006.2000 60.1242
v  1027.1183 3006.2000 60.1242
v  -2392.4338 3006.2000 -60.1238
v  -2392.4338 3006.2000 60.1242
v  -2780.7349 3006.2000 -60.1238
v  -2780.7349 2404.9600 -60.1239
v  -2780.7349 2404.9600 60.1241
v  -2780.7349 3006.2000 60.1242
v  -2780.7349 1803.7200 -60.1240
v  -2780.7349 1803.7200 60.1240
v  -2780.7349 1202.4800 -60.1241
v  -2780.7349 1202.4800 60.1239
v  -2780.7349 601.2401 -60.1241
v  -2780.7349 601.2401 60.1238
v  -2780.7349 0.0000 -60.1242
v  -2780.7349 0.0000 60.1237
v  -801.6532 526.0850 -135.7235
v  -801.6532 75.1550 -135.7236
v  -2317.2788 75.1550 -135.7236
v  -2317.2788 526.0850 -135.7235
v  -801.6532 1127.3250 -135.7232
v  -801.6532 676.3950 -135.7234
v  -2317.2788 676.3950 -135.7234
v  -2317.2788 1127.3250 -135.7232
v  -801.6532 1728.5649 -135.7230
v  -801.6532 1277.6350 -135.7231
v  -2317.2788 1277.6350 -135.7231
v  -2317.2788 1728.5649 -135.7230
v  -801.6532 2329.8049 -135.7228
v  -801.6532 1878.8750 -135.7229
v  -2317.2788 1878.8750 -135.7229
v  -2317.2788 2329.8049 -135.7228
v  -801.6532 2931.0449 -135.7226
v  -801.6532 2480.1150 -135.7227
v  -2317.2788 2480.1150 -135.7227
v  -2317.2788 2931.0449 -135.7226
v  -801.6532 75.1550 135.7226
v  -801.6532 526.0850 135.7227
v  -2317.2788 526.0850 135.7227
v  -2317.2788 75.1550 135.7226
v  -801.6532 676.3950 135.7228
v  -801.6532 1127.3250 135.7230
v  -2317.2788 1127.3250 135.7230
v  -2317.2788 676.3950 135.7228
v  -801.6532 1277.6350 135.7230
v  -801.6532 1728.5649 135.7231
v  -2317.2788 1728.5649 135.7231
v  -2317.2788 1277.6350 135.7230
v  -801.6532 1878.8749 135.7232
v  -801.6532 2329.8049 135.7233
v  -2317.2788 2329.8049 135.7233
v  -2317.2788 1878.8749 135.7232
v  -801.6532 2480.1147 135.7235
v  -801.6532 2931.0449 135.7236
v  -2317.2788 2931.0449 135.7236
v  -2317.2788 2480.1147 135.7235
v  -2480.1147 3006.2000 -60.1238
v  -2480.1147 3006.2000 60.1242
v  2780.7346 601.2401 -90.1861
v  2780.7346 0.0000 -90.1862
v  2693.0540 0.0000 -90.1862
v  2693.0540 601.2401 -90.1861
v  2780.7346 1202.4800 -90.1861
v  2693.0540 1202.4800 -90.1861
v  2780.7346 1803.7200 -90.1860
v  2693.0540 1803.7200 -90.1860
v  2780.7346 2404.9600 -90.1859
v  2693.0540 2404.9600 -90.1859
v  2780.7346 3006.2000 -90.1858
v  2693.0540 3006.2000 -90.1858
v  2780.7346 0.0000 90.1858
v  2780.7346 601.2401 90.1858
v  2693.0540 601.2401 90.1858
v  2693.0540 0.0000 90.1858
v  2780.7346 1202.4800 90.1860
v  2693.0540 1202.4800 90.1860
v  2780.7346 1803.7200 90.1860
v  2693.0540 1803.7200 90.1860
v  2780.7346 2404.9600 90.1861
v  2693.0540 2404.9600 90.1861
v  2780.7346 3006.2000 90.1862
v  2693.0540 3006.2000 90.1862
v  -2780.7349 601.2401 -90.1861
v  -2780.7349 0.0000 -90.1862
v  -2780.7349 1202.4800 -90.1861
v  -2780.7349 1803.7200 -90.1860
v  -2780.7349 2404.9600 -90.1859
v  -2780.7349 3006.2000 -90.1858
v  -2392.4338 2404.9600 -60.1239
v  -2392.4338 1803.7200 -60.1240
v  -2392.4338 1202.4800 -60.1241
v  -2392.4338 601.2401 -60.1241
v  -2392.4338 601.2401 60.1238
v  -2392.4338 1202.4800 60.1239
v  -2392.4338 1803.7200 60.1240
v  -2392.4338 2404.9600 60.1241
v  -2780.7349 2404.9600 90.1861
v  -2780.7349 3006.2000 90.1862
v  -2780.7349 1803.7200 90.1860
v  -2780.7349 1202.4800 90.1860
v  -2780.7349 601.2401 90.1858
v  -2780.7349 0.0000 90.1858
v  2693.0540 601.2401 -60.1241
v  2693.0540 1202.4800 -60.1241
v  2693.0540 1803.7200 -60.1240
v  2693.0540 2404.9600 -60.1239
v  2693.0540 2404.9600 60.1241
v  2693.0540 1803.7200 60.1240
v  2693.0540 1202.4800 60.1239
v  2693.0540 601.2401 60.1238
v  1027.1183 601.2401 60.1238
v  -726.4983 601.2401 60.1238
v  1027.1183 1202.4800 60.1239
v  -726.4983 1202.4800 60.1239
v  1027.1183 1803.7200 60.1240
v  -726.4983 1803.7200 60.1240
v  1027.1183 2404.9600 60.1241
v  -726.4983 2404.9600 60.1241
v  -726.4983 601.2401 -60.1241
v  1027.1183 601.2401 -60.1241
v  -726.4983 1202.4800 -60.1241
v  1027.1183 1202.4800 -60.1241
v  -726.4983 1803.7200 -60.1240
v  1027.1183 1803.7200 -60.1240
v  -726.4983 2404.9600 -60.1239
v  1027.1183 2404.9600 -60.1239
v  -2480.1147 0.0000 210.4337
v  -2480.1147 601.2400 210.4338
v  -2780.7349 601.2400 210.4338
v  -2780.7349 0.0000 210.4337
v  -2480.1147 1202.4800 210.4339
v  -2780.7349 1202.4800 210.4339
v  -2480.1147 1803.7200 210.4341
v  -2780.7349 1803.7200 210.4341
v  -2480.1147 2404.9600 210.4341
v  -2780.7349 2404.9600 210.4341
v  -2480.1147 3006.2000 210.4342
v  -2780.7349 3006.2000 210.4342
v  -2480.1147 3006.2000 -210.4337
v  -2480.1147 2404.9600 -210.4338
v  -2780.7349 2404.9600 -210.4338
v  -2780.7349 3006.2000 -210.4337
v  -2480.1147 1803.7200 -210.4340
v  -2780.7349 1803.7200 -210.4340
v  -2480.1147 1202.4800 -210.4341
v  -2780.7349 1202.4800 -210.4341
v  -2480.1147 601.2401 -210.4341
v  -2780.7349 601.2401 -210.4341
v  -2480.1147 0.0000 -210.4342
v  -2780.7349 0.0000 -210.4342
# 280 vertices

vn 0.0000 0.0000 -1.0000
vn 0.0000 -0.0000 1.0000
vn 0.0000 -1.0000 -0.0000
vn 1.0000 0.0000 -0.0000
vn 0.0000 1.0000 -0.0000
vn -1.0000 0.0000 -0.0000
vn 0.0000 -0.7092 0.7050
vn 0.7092 -0.0000 0.7050
vn 0.0000 0.7092 0.7050
vn -0.7092 -0.0000 0.7050
vn -0.7092 0.0000 -0.7050
vn 0.0000 0.7092 -0.7050
vn 0.7092 0.0000 -0.7050
vn 0.0000 -0.7092 -0.7050
# 14 vertex normals

vt 0.0477 0.1397 0.0000
vt 0.0364 0.1397 0.0000
vt 0.0364 0.0618 0.0000
vt 0.0477 0.0618 0.0000
vt 0.2998 0.9508 0.0000
vt 0.2998 0.8898 0.0000
vt 0.5168 0.8898 0.0000
vt 0.5168 0.9508 0.0000
vt 0.5798 0.8936 0.0000
vt 0.7850 0.8936 0.0000
vt 0.7850 0.9547 0.0000
vt 0.5798 0.9547 0.0000
vt 0.0477 0.2176 0.0000
vt 0.0364 0.2176 0.0000
vt 0.2998 0.8694 0.0000
vt 0.2998 0.8084 0.0000
vt 0.5168 0.8084 0.0000
vt 0.5168 0.8694 0.0000
vt 0.5798 0.8123 0.0000
vt 0.7850 0.8123 0.0000
vt 0.7850 0.8733 0.0000
vt 0.5798 0.8733 0.0000
vt 0.0477 0.2955 0.0000
vt 0.0364 0.2955 0.0000
vt 0.2998 0.7880 0.0000
vt 0.2998 0.7270 0.0000
vt 0.5168 0.7270 0.0000
vt 0.5168 0.7880 0.0000
vt 0.5798 0.7309 0.0000
vt 0.7850 0.7309 0.0000
vt 0.7850 0.7919 0.0000
vt 0.5798 0.7919 0.0000
vt 0.0477 0.3734 0.0000
vt 0.0364 0.3734 0.0000
vt 0.2998 0.7067 0.0000
vt 0.2998 0.6456 0.0000
vt 0.5168 0.6456 0.0000
vt 0.5168 0.7067 0.0000
vt 0.5798 0.6495 0.0000
vt 0.7850 0.6495 0.0000
vt 0.7850 0.7105 0.0000
vt 0.5798 0.7105 0.0000
vt 0.0477 0.4513 0.0000
vt 0.0364 0.4513 0.0000
vt 0.2998 0.6253 0.0000
vt 0.2998 0.5642 0.0000
vt 0.5168 0.5642 0.0000
vt 0.5168 0.6253 0.0000
vt 0.5798 0.5681 0.0000
vt 0.7850 0.5681 0.0000
vt 0.7850 0.6291 0.0000
vt 0.5798 0.6291 0.0000
vt 0.2227 0.0618 0.0000
vt 0.2227 0.1397 0.0000
vt 0.2113 0.1397 0.0000
vt 0.2113 0.0618 0.0000
vt 0.5142 0.0699 0.0000
vt 0.7220 0.0699 0.0000
vt 0.7220 0.1283 0.0000
vt 0.5142 0.1283 0.0000
vt 0.9778 0.0644 0.0000
vt 0.9778 0.1228 0.0000
vt 0.7814 0.1228 0.0000
vt 0.7814 0.0644 0.0000
vt 0.2227 0.2176 0.0000
vt 0.2113 0.2176 0.0000
vt 0.5142 0.1560 0.0000
vt 0.7220 0.1560 0.0000
vt 0.7220 0.2144 0.0000
vt 0.5142 0.2144 0.0000
vt 0.9778 0.1504 0.0000
vt 0.9778 0.2089 0.0000
vt 0.7814 0.2089 0.0000
vt 0.7814 0.1504 0.0000
vt 0.2227 0.2955 0.0000
vt 0.2113 0.2955 0.0000
vt 0.5142 0.2420 0.0000
vt 0.7220 0.2420 0.0000
vt 0.7220 0.3004 0.0000
vt 0.5142 0.3004 0.0000
vt 0.9778 0.2365 0.0000
vt 0.9778 0.2949 0.0000
vt 0.7814 0.2949 0.0000
vt 0.7814 0.2365 0.0000
vt 0.2227 0.3734 0.0000
vt 0.2113 0.3734 0.0000
vt 0.5142 0.3280 0.0000
vt 0.7220 0.3280 0.0000
vt 0.7220 0.3864 0.0000
vt 0.5142 0.3864 0.0000
vt 0.9778 0.3225 0.0000
vt 0.9778 0.3809 0.0000
vt 0.7814 0.3809 0.0000
vt 0.7814 0.3225 0.0000
vt 0.2227 0.4513 0.0000
vt 0.2113 0.4513 0.0000
vt 0.5142 0.4141 0.0000
vt 0.7220 0.4141 0.0000
vt 0.7220 0.4725 0.0000
vt 0.5142 0.4725 0.0000
vt 0.9778 0.4085 0.0000
vt 0.9778 0.4670 0.0000
vt 0.7814 0.4670 0.0000
vt 0.7814 0.4085 0.0000
vt 0.1218 0.0115 0.0000
vt 0.1373 0.0115 0.0000
vt 0.1373 0.0228 0.0000
vt 0.1218 0.0228 0.0000
vt 0.5045 0.0405 0.0000
vt 0.7317 0.0405 0.0000
vt 0.7317 0.0561 0.0000
vt 0.5045 0.0561 0.0000
vt 0.9875 0.0350 0.0000
vt 0.9875 0.0506 0.0000
vt 0.7717 0.0506 0.0000
vt 0.7717 0.0350 0.0000
vt 0.8388 0.9619 0.0000
vt 0.8388 0.8840 0.0000
vt 0.8544 0.8840 0.0000
vt 0.8544 0.9619 0.0000
vt 0.8388 0.8061 0.0000
vt 0.8544 0.8061 0.0000
vt 0.8388 0.7282 0.0000
vt 0.8544 0.7282 0.0000
vt 0.8388 0.6503 0.0000
vt 0.8544 0.6503 0.0000
vt 0.8388 0.5724 0.0000
vt 0.8544 0.5724 0.0000
vt 0.8388 0.5611 0.0000
vt 0.8544 0.5611 0.0000
vt 0.7317 0.5019 0.0000
vt 0.5045 0.5019 0.0000
vt 0.5045 0.4863 0.0000
vt 0.7317 0.4863 0.0000
vt 0.2465 0.5013 0.0000
vt 0.2465 0.4857 0.0000
vt 0.4623 0.4857 0.0000
vt 0.4623 0.5013 0.0000
vt 0.1217 0.4513 0.0000
vt 0.1217 0.3734 0.0000
vt 0.1373 0.3734 0.0000
vt 0.1373 0.4513 0.0000
vt 0.1217 0.2955 0.0000
vt 0.1373 0.2955 0.0000
vt 0.1217 0.2176 0.0000
vt 0.1373 0.2176 0.0000
vt 0.1217 0.1397 0.0000
vt 0.1373 0.1397 0.0000
vt 0.1218 0.0618 0.0000
vt 0.1373 0.0618 0.0000
vt 0.2270 0.8902 0.0000
vt 0.2270 0.9513 0.0000
vt 0.0219 0.9513 0.0000
vt 0.0219 0.8902 0.0000
vt 0.2255 0.8103 0.0000
vt 0.2255 0.8714 0.0000
vt 0.0219 0.8699 0.0000
vt 0.0219 0.8088 0.0000
vt 0.2270 0.7275 0.0000
vt 0.2270 0.7885 0.0000
vt 0.0219 0.7885 0.0000
vt 0.0219 0.7275 0.0000
vt 0.2270 0.6461 0.0000
vt 0.2270 0.7071 0.0000
vt 0.0219 0.7071 0.0000
vt 0.0219 0.6461 0.0000
vt 0.2270 0.5647 0.0000
vt 0.2270 0.6257 0.0000
vt 0.0219 0.6257 0.0000
vt 0.0219 0.5647 0.0000
vt 0.4526 0.0694 0.0000
vt 0.4526 0.1278 0.0000
vt 0.2562 0.1278 0.0000
vt 0.2562 0.0694 0.0000
vt 0.4526 0.1554 0.0000
vt 0.4526 0.2138 0.0000
vt 0.2562 0.2138 0.0000
vt 0.2562 0.1554 0.0000
vt 0.4526 0.2414 0.0000
vt 0.4526 0.2999 0.0000
vt 0.2562 0.2999 0.0000
vt 0.2562 0.2414 0.0000
vt 0.4526 0.3275 0.0000
vt 0.4526 0.3859 0.0000
vt 0.2562 0.3859 0.0000
vt 0.2562 0.3275 0.0000
vt 0.4526 0.4135 0.0000
vt 0.4526 0.4719 0.0000
vt 0.2562 0.4719 0.0000
vt 0.2562 0.4135 0.0000
vt 0.4623 0.0400 0.0000
vt 0.4623 0.0556 0.0000
vt 0.2465 0.0556 0.0000
vt 0.2465 0.0400 0.0000
vt 0.1218 0.4902 0.0000
vt 0.1373 0.4902 0.0000
vt 0.1373 0.5016 0.0000
vt 0.1218 0.5016 0.0000
vt 0.8294 0.8763 0.0000
vt 0.8294 0.9542 0.0000
vt 0.8180 0.9542 0.0000
vt 0.8180 0.8763 0.0000
vt 0.8294 0.7984 0.0000
vt 0.8180 0.7984 0.0000
vt 0.8294 0.7205 0.0000
vt 0.8180 0.7205 0.0000
vt 0.8294 0.6426 0.0000
vt 0.8180 0.6426 0.0000
vt 0.8294 0.5647 0.0000
vt 0.8180 0.5647 0.0000
vt 0.9054 0.5575 0.0000
vt 0.9054 0.6354 0.0000
vt 0.8940 0.6354 0.0000
vt 0.8940 0.5575 0.0000
vt 0.9054 0.7133 0.0000
vt 0.8940 0.7133 0.0000
vt 0.9054 0.7912 0.0000
vt 0.8940 0.7912 0.0000
vt 0.9054 0.8691 0.0000
vt 0.8940 0.8691 0.0000
vt 0.9054 0.9470 0.0000
vt 0.8940 0.9470 0.0000
vt 0.8544 0.9733 0.0000
vt 0.8388 0.9733 0.0000
vt 0.7717 0.4964 0.0000
vt 0.7717 0.4808 0.0000
vt 0.9875 0.4808 0.0000
vt 0.9875 0.4964 0.0000
vt 0.1179 0.1397 0.0000
vt 0.1179 0.0618 0.0000
vt 0.1179 0.2176 0.0000
vt 0.1179 0.2955 0.0000
vt 0.1179 0.3734 0.0000
vt 0.1179 0.4513 0.0000
vt 0.1179 0.5016 0.0000
vt 0.1179 0.4902 0.0000
vt 0.0325 0.4513 0.0000
vt 0.0325 0.3734 0.0000
vt 0.0325 0.2955 0.0000
vt 0.0325 0.2176 0.0000
vt 0.0325 0.1397 0.0000
vt 0.0325 0.0618 0.0000
vt 0.1179 0.0228 0.0000
vt 0.1179 0.0115 0.0000
vt 0.1412 0.0115 0.0000
vt 0.1412 0.0228 0.0000
vt 0.2266 0.0618 0.0000
vt 0.2266 0.1397 0.0000
vt 0.2266 0.2176 0.0000
vt 0.2266 0.2955 0.0000
vt 0.2266 0.3734 0.0000
vt 0.2266 0.4513 0.0000
vt 0.1412 0.4902 0.0000
vt 0.1412 0.5016 0.0000
vt 0.1412 0.3734 0.0000
vt 0.1412 0.4513 0.0000
vt 0.1412 0.2955 0.0000
vt 0.1412 0.2176 0.0000
vt 0.1412 0.1397 0.0000
vt 0.1412 0.0618 0.0000
vt 0.8349 0.9619 0.0000
vt 0.8349 0.8840 0.0000
vt 0.8349 0.9733 0.0000
vt 0.8141 0.9542 0.0000
vt 0.8141 0.8763 0.0000
vt 0.8141 0.7984 0.0000
vt 0.8141 0.7205 0.0000
vt 0.8141 0.6426 0.0000
vt 0.8141 0.5647 0.0000
vt 0.8349 0.5724 0.0000
vt 0.8349 0.5611 0.0000
vt 0.8349 0.6503 0.0000
vt 0.8349 0.7282 0.0000
vt 0.8350 0.8061 0.0000
vt 0.8583 0.8840 0.0000
vt 0.8583 0.9619 0.0000
vt 0.8583 0.8061 0.0000
vt 0.8583 0.7282 0.0000
vt 0.8583 0.6503 0.0000
vt 0.8583 0.5724 0.0000
vt 0.8583 0.5611 0.0000
vt 0.8901 0.9470 0.0000
vt 0.8901 0.8691 0.0000
vt 0.8901 0.7912 0.0000
vt 0.8901 0.7133 0.0000
vt 0.8901 0.6354 0.0000
vt 0.8901 0.5575 0.0000
vt 0.8583 0.9733 0.0000
vt 0.7523 0.0582 0.0000
vt 0.7523 0.1361 0.0000
vt 0.7385 0.1263 0.0000
vt 0.7385 0.0679 0.0000
vt 0.7317 0.1421 0.0000
vt 0.5045 0.1421 0.0000
vt 0.4833 0.1380 0.0000
vt 0.4833 0.0601 0.0000
vt 0.4971 0.0698 0.0000
vt 0.4971 0.1282 0.0000
vt 0.8763 0.6257 0.0000
vt 0.8763 0.5673 0.0000
vt 0.9875 0.1366 0.0000
vt 0.7717 0.1366 0.0000
vt 0.7661 0.0679 0.0000
vt 0.7661 0.1263 0.0000
vt 0.7523 0.2140 0.0000
vt 0.7385 0.2042 0.0000
vt 0.7385 0.1458 0.0000
vt 0.7317 0.2282 0.0000
vt 0.5045 0.2282 0.0000
vt 0.4833 0.2159 0.0000
vt 0.4971 0.1477 0.0000
vt 0.4971 0.2061 0.0000
vt 0.8763 0.7036 0.0000
vt 0.8763 0.6452 0.0000
vt 0.9875 0.2227 0.0000
vt 0.7717 0.2227 0.0000
vt 0.7661 0.1458 0.0000
vt 0.7661 0.2042 0.0000
vt 0.7523 0.2919 0.0000
vt 0.7385 0.2821 0.0000
vt 0.7385 0.2237 0.0000
vt 0.7317 0.3142 0.0000
vt 0.5045 0.3142 0.0000
vt 0.4833 0.2938 0.0000
vt 0.4971 0.2256 0.0000
vt 0.4971 0.2840 0.0000
vt 0.8763 0.7815 0.0000
vt 0.8763 0.7231 0.0000
vt 0.9875 0.3087 0.0000
vt 0.7717 0.3087 0.0000
vt 0.7661 0.2237 0.0000
vt 0.7661 0.2821 0.0000
vt 0.7523 0.3698 0.0000
vt 0.7385 0.3600 0.0000
vt 0.7385 0.3016 0.0000
vt 0.7317 0.4002 0.0000
vt 0.5045 0.4002 0.0000
vt 0.4833 0.3717 0.0000
vt 0.4971 0.3035 0.0000
vt 0.4971 0.3619 0.0000
vt 0.8763 0.8594 0.0000
vt 0.8763 0.8010 0.0000
vt 0.9875 0.3947 0.0000
vt 0.7717 0.3947 0.0000
vt 0.7661 0.3016 0.0000
vt 0.7661 0.3600 0.0000
vt 0.7523 0.4477 0.0000
vt 0.7385 0.4379 0.0000
vt 0.7385 0.3795 0.0000
vt 0.4833 0.4496 0.0000
vt 0.4971 0.3814 0.0000
vt 0.4971 0.4398 0.0000
vt 0.8763 0.9373 0.0000
vt 0.8763 0.8789 0.0000
vt 0.7661 0.3795 0.0000
vt 0.7661 0.4379 0.0000
vt 0.4695 0.1282 0.0000
vt 0.4695 0.0698 0.0000
vt 0.4623 0.1416 0.0000
vt 0.2465 0.1416 0.0000
vt 0.2404 0.0715 0.0000
vt 0.2404 0.1299 0.0000
vt 0.4695 0.2061 0.0000
vt 0.4695 0.1477 0.0000
vt 0.4624 0.2276 0.0000
vt 0.2465 0.2276 0.0000
vt 0.2404 0.1494 0.0000
vt 0.2404 0.2078 0.0000
vt 0.4695 0.2840 0.0000
vt 0.4695 0.2256 0.0000
vt 0.4624 0.3137 0.0000
vt 0.2465 0.3137 0.0000
vt 0.2404 0.2273 0.0000
vt 0.2404 0.2857 0.0000
vt 0.4695 0.3619 0.0000
vt 0.4695 0.3035 0.0000
vt 0.4624 0.3997 0.0000
vt 0.2465 0.3997 0.0000
vt 0.2404 0.3052 0.0000
vt 0.2404 0.3636 0.0000
vt 0.4695 0.4398 0.0000
vt 0.4695 0.3814 0.0000
vt 0.2404 0.3831 0.0000
vt 0.2404 0.4415 0.0000
vt 0.2567 0.9443 0.0000
vt 0.2567 0.8664 0.0000
vt 0.2705 0.8761 0.0000
vt 0.2705 0.9345 0.0000
vt 0.2896 0.8796 0.0000
vt 0.5270 0.8796 0.0000
vt 0.5483 0.8732 0.0000
vt 0.5483 0.9511 0.0000
vt 0.5345 0.9414 0.0000
vt 0.5345 0.8830 0.0000
vt 0.5142 0.0267 0.0000
vt 0.7220 0.0267 0.0000
vt 0.5621 0.8830 0.0000
vt 0.5621 0.9414 0.0000
vt 0.5697 0.8835 0.0000
vt 0.7952 0.8835 0.0000
vt 0.8003 0.9445 0.0000
vt 0.8003 0.8860 0.0000
vt 0.7814 0.0212 0.0000
vt 0.9778 0.0212 0.0000
vt 0.2567 0.7885 0.0000
vt 0.2705 0.7982 0.0000
vt 0.2705 0.8566 0.0000
vt 0.2896 0.7982 0.0000
vt 0.5270 0.7982 0.0000
vt 0.5483 0.7953 0.0000
vt 0.5345 0.8635 0.0000
vt 0.5345 0.8051 0.0000
vt 0.5621 0.8051 0.0000
vt 0.5621 0.8635 0.0000
vt 0.5697 0.8021 0.0000
vt 0.7952 0.8021 0.0000
vt 0.8003 0.8666 0.0000
vt 0.8003 0.8081 0.0000
vt 0.2567 0.7106 0.0000
vt 0.2705 0.7203 0.0000
vt 0.2705 0.7787 0.0000
vt 0.2896 0.7168 0.0000
vt 0.5270 0.7168 0.0000
vt 0.5483 0.7174 0.0000
vt 0.5345 0.7856 0.0000
vt 0.5345 0.7272 0.0000
vt 0.5621 0.7272 0.0000
vt 0.5621 0.7856 0.0000
vt 0.5697 0.7207 0.0000
vt 0.7952 0.7207 0.0000
vt 0.8003 0.7887 0.0000
vt 0.8003 0.7302 0.0000
vt 0.2567 0.6327 0.0000
vt 0.2705 0.6424 0.0000
vt 0.2705 0.7008 0.0000
vt 0.2896 0.6354 0.0000
vt 0.5270 0.6354 0.0000
vt 0.5483 0.6395 0.0000
vt 0.5345 0.7077 0.0000
vt 0.5345 0.6493 0.0000
vt 0.5621 0.6493 0.0000
vt 0.5621 0.7077 0.0000
vt 0.5697 0.6393 0.0000
vt 0.7952 0.6393 0.0000
vt 0.8003 0.7108 0.0000
vt 0.8003 0.6523 0.0000
vt 0.2567 0.5548 0.0000
vt 0.2705 0.5645 0.0000
vt 0.2705 0.6229 0.0000
vt 0.7220 0.5157 0.0000
vt 0.5142 0.5157 0.0000
vt 0.5483 0.5616 0.0000
vt 0.5344 0.6298 0.0000
vt 0.5345 0.5714 0.0000
vt 0.5621 0.5714 0.0000
vt 0.5621 0.6298 0.0000
vt 0.9778 0.5102 0.0000
vt 0.7814 0.5102 0.0000
vt 0.8003 0.6329 0.0000
vt 0.8003 0.5745 0.0000
vt 0.0117 0.8801 0.0000
vt 0.2372 0.8801 0.0000
vt 0.2429 0.9345 0.0000
vt 0.2429 0.8761 0.0000
vt 0.2562 0.0262 0.0000
vt 0.4526 0.0262 0.0000
vt 0.0187 0.1299 0.0000
vt 0.0187 0.0715 0.0000
vt 0.0117 0.7987 0.0000
vt 0.2372 0.7987 0.0000
vt 0.2429 0.8566 0.0000
vt 0.2429 0.7982 0.0000
vt 0.0187 0.2078 0.0000
vt 0.0187 0.1494 0.0000
vt 0.0117 0.7173 0.0000
vt 0.2372 0.7173 0.0000
vt 0.2429 0.7787 0.0000
vt 0.2429 0.7203 0.0000
vt 0.0187 0.2857 0.0000
vt 0.0187 0.2273 0.0000
vt 0.0117 0.6359 0.0000
vt 0.2372 0.6359 0.0000
vt 0.2429 0.7008 0.0000
vt 0.2429 0.6424 0.0000
vt 0.0187 0.3636 0.0000
vt 0.0187 0.3052 0.0000
vt 0.4526 0.5151 0.0000
vt 0.2562 0.5151 0.0000
vt 0.2429 0.6229 0.0000
vt 0.2429 0.5645 0.0000
vt 0.0187 0.4415 0.0000
vt 0.0187 0.3831 0.0000
vt 0.1957 0.0618 0.0000
vt 0.1957 0.1397 0.0000
vt 0.1568 0.1397 0.0000
vt 0.1568 0.0618 0.0000
vt 0.1957 0.2176 0.0000
vt 0.1568 0.2176 0.0000
vt 0.1957 0.2955 0.0000
vt 0.1568 0.2955 0.0000
vt 0.1958 0.3734 0.0000
vt 0.1568 0.3734 0.0000
vt 0.1958 0.4513 0.0000
vt 0.1568 0.4513 0.0000
vt 0.0633 0.4513 0.0000
vt 0.0633 0.3734 0.0000
vt 0.1023 0.3734 0.0000
vt 0.1023 0.4513 0.0000
vt 0.0633 0.2955 0.0000
vt 0.1023 0.2955 0.0000
vt 0.0633 0.2176 0.0000
vt 0.1023 0.2176 0.0000
vt 0.0633 0.1397 0.0000
vt 0.1023 0.1397 0.0000
vt 0.0633 0.0618 0.0000
vt 0.1023 0.0618 0.0000
vt 0.1568 0.4902 0.0000
vt 0.1568 0.0228 0.0000
vt 0.1023 0.0228 0.0000
vt 0.1023 0.4902 0.0000
# 520 texture coords

g Concrete_fence
usemtl wire_135006006
s 2
f 1/1/1 2/2/1 3/3/1 4/4/1 
f 5/5/1 6/6/1 7/7/1 8/8/1 
f 9/9/1 10/10/1 11/11/1 12/12/1 
f 13/13/1 14/14/1 2/2/1 1/1/1 
f 15/15/1 16/16/1 17/17/1 18/18/1 
f 19/19/1 20/20/1 21/21/1 22/22/1 
f 23/23/1 24/24/1 14/14/1 13/13/1 
f 25/25/1 26/26/1 27/27/1 28/28/1 
f 29/29/1 30/30/1 31/31/1 32/32/1 
f 33/33/1 34/34/1 24/24/1 23/23/1 
f 35/35/1 36/36/1 37/37/1 38/38/1 
f 39/39/1 40/40/1 41/41/1 42/42/1 
f 43/43/1 44/44/1 34/34/1 33/33/1 
f 45/45/1 46/46/1 47/47/1 48/48/1 
f 49/49/1 50/50/1 51/51/1 52/52/1 
s 4
f 53/53/2 54/54/2 55/55/2 56/56/2 
f 57/57/2 58/58/2 59/59/2 60/60/2 
f 61/61/2 62/62/2 63/63/2 64/64/2 
f 54/54/2 65/65/2 66/66/2 55/55/2 
f 67/67/2 68/68/2 69/69/2 70/70/2 
f 71/71/2 72/72/2 73/73/2 74/74/2 
f 65/65/2 75/75/2 76/76/2 66/66/2 
f 77/77/2 78/78/2 79/79/2 80/80/2 
f 81/81/2 82/82/2 83/83/2 84/84/2 
f 75/75/2 85/85/2 86/86/2 76/76/2 
f 87/87/2 88/88/2 89/89/2 90/90/2 
f 91/91/2 92/92/2 93/93/2 94/94/2 
f 85/85/2 95/95/2 96/96/2 86/86/2 
f 97/97/2 98/98/2 99/99/2 100/100/2 
f 101/101/2 102/102/2 103/103/2 104/104/2 
s 8
f 105/105/3 106/106/3 107/107/3 108/108/3 
f 109/109/3 110/110/3 111/111/3 112/112/3 
f 113/113/3 114/114/3 111/115/3 110/116/3 
s 16
f 115/117/4 116/118/4 117/119/4 118/120/4 
f 116/118/4 119/121/4 120/122/4 117/119/4 
f 119/121/4 121/123/4 122/124/4 120/122/4 
f 121/123/4 123/125/4 124/126/4 122/124/4 
f 123/125/4 125/127/4 126/128/4 124/126/4 
s 32
f 127/129/5 128/130/5 126/128/5 125/127/5 
f 129/131/5 130/132/5 131/133/5 132/134/5 
f 133/135/5 134/136/5 131/137/5 130/138/5 
s 64
f 135/139/6 136/140/6 137/141/6 138/142/6 
f 136/140/6 139/143/6 140/144/6 137/141/6 
f 139/143/6 141/145/6 142/146/6 140/144/6 
f 141/145/6 143/147/6 144/148/6 142/146/6 
f 143/147/6 145/149/6 146/150/6 144/148/6 
s 2
f 147/151/1 148/152/1 149/153/1 150/154/1 
f 151/155/1 152/156/1 153/157/1 154/158/1 
f 155/159/1 156/160/1 157/161/1 158/162/1 
f 159/163/1 160/164/1 161/165/1 162/166/1 
f 163/167/1 164/168/1 165/169/1 166/170/1 
s 4
f 167/171/2 168/172/2 169/173/2 170/174/2 
f 171/175/2 172/176/2 173/177/2 174/178/2 
f 175/179/2 176/180/2 177/181/2 178/182/2 
f 179/183/2 180/184/2 181/185/2 182/186/2 
f 183/187/2 184/188/2 185/189/2 186/190/2 
s 8
f 109/191/3 112/192/3 106/193/3 105/194/3 
s 32
f 187/195/5 188/196/5 134/197/5 133/198/5 
s 2
f 189/199/1 190/200/1 191/201/1 192/202/1 
f 193/203/1 189/199/1 192/202/1 194/204/1 
f 195/205/1 193/203/1 194/204/1 196/206/1 
f 197/207/1 195/205/1 196/206/1 198/208/1 
f 199/209/1 197/207/1 198/208/1 200/210/1 
s 4
f 201/211/2 202/212/2 203/213/2 204/214/2 
f 202/212/2 205/215/2 206/216/2 203/213/2 
f 205/215/2 207/217/2 208/218/2 206/216/2 
f 207/217/2 209/219/2 210/220/2 208/218/2 
f 209/219/2 211/221/2 212/222/2 210/220/2 
s 8
f 115/117/3 118/120/3 114/223/3 113/224/3 
s 32
f 129/225/5 132/226/5 128/227/5 127/228/5 
s off
f 145/149/6 143/147/6 213/229/6 214/230/6 
f 143/147/6 141/145/6 215/231/6 213/229/6 
f 141/145/6 139/143/6 216/232/6 215/231/6 
f 139/143/6 136/140/6 217/233/6 216/232/6 
f 136/140/6 135/139/6 218/234/6 217/233/6 
f 187/195/5 133/198/5 44/235/5 43/236/5 
f 133/237/4 219/238/4 34/34/4 44/44/4 
f 219/238/4 220/239/4 24/24/4 34/34/4 
f 220/239/4 221/240/4 14/14/4 24/24/4 
f 221/240/4 222/241/4 2/2/4 14/14/4 
f 222/241/4 105/242/4 3/3/4 2/2/4 
f 105/105/3 108/108/3 4/243/3 3/244/3 
f 107/107/3 106/106/3 53/245/3 56/246/3 
f 106/247/4 223/248/4 54/54/4 53/53/4 
f 223/248/4 224/249/4 65/65/4 54/54/4 
f 224/249/4 225/250/4 75/75/4 65/65/4 
f 225/250/4 226/251/4 85/85/4 75/75/4 
f 226/251/4 134/252/4 95/95/4 85/85/4 
f 134/197/5 188/196/5 96/253/5 95/254/5 
f 138/142/6 137/141/6 227/255/6 228/256/6 
f 137/141/6 140/144/6 229/257/6 227/255/6 
f 140/144/6 142/146/6 230/258/6 229/257/6 
f 142/146/6 144/148/6 231/259/6 230/258/6 
f 144/148/6 146/150/6 232/260/6 231/259/6 
f 116/118/4 115/117/4 190/261/4 189/262/4 
f 115/117/3 113/224/3 191/263/3 190/261/3 
f 113/264/6 233/265/6 192/202/6 191/201/6 
f 233/265/6 234/266/6 194/204/6 192/202/6 
f 234/266/6 235/267/6 196/206/6 194/204/6 
f 235/267/6 236/268/6 198/208/6 196/206/6 
f 236/268/6 127/269/6 200/210/6 198/208/6 
f 127/129/5 125/127/5 199/270/5 200/271/5 
f 125/127/4 123/125/4 197/272/4 199/270/4 
f 123/125/4 121/123/4 195/273/4 197/272/4 
f 121/123/4 119/121/4 193/274/4 195/273/4 
f 119/121/4 116/118/4 189/262/4 193/274/4 
f 118/120/4 117/119/4 202/275/4 201/276/4 
f 117/119/4 120/122/4 205/277/4 202/275/4 
f 120/122/4 122/124/4 207/278/4 205/277/4 
f 122/124/4 124/126/4 209/279/4 207/278/4 
f 124/126/4 126/128/4 211/280/4 209/279/4 
f 126/128/5 128/130/5 212/281/5 211/280/5 
f 128/282/6 237/283/6 210/220/6 212/222/6 
f 237/283/6 238/284/6 208/218/6 210/220/6 
f 238/284/6 239/285/6 206/216/6 208/218/6 
f 239/285/6 240/286/6 203/213/6 206/216/6 
f 240/286/6 114/287/6 204/214/6 203/213/6 
f 114/223/3 118/120/3 201/276/3 204/288/3 
f 112/112/7 111/111/7 58/58/7 57/57/7 
f 111/289/8 241/290/8 59/291/8 58/292/8 
f 241/293/9 242/294/9 60/60/9 59/59/9 
f 242/295/10 112/296/10 57/297/10 60/298/10 
f 111/115/7 114/114/7 61/61/7 64/64/7 
f 114/287/8 240/286/8 62/299/8 61/300/8 
f 240/301/9 241/302/9 63/63/9 62/62/9 
f 241/290/10 111/289/10 64/303/10 63/304/10 
f 242/294/7 241/293/7 68/68/7 67/67/7 
f 241/290/8 243/305/8 69/306/8 68/307/8 
f 243/308/9 244/309/9 70/70/9 69/69/9 
f 244/310/10 242/295/10 67/311/10 70/312/10 
f 241/302/7 240/301/7 71/71/7 74/74/7 
f 240/286/8 239/285/8 72/313/8 71/314/8 
f 239/315/9 243/316/9 73/73/9 72/72/9 
f 243/305/10 241/290/10 74/317/10 73/318/10 
f 244/309/7 243/308/7 78/78/7 77/77/7 
f 243/305/8 245/319/8 79/320/8 78/321/8 
f 245/322/9 246/323/9 80/80/9 79/79/9 
f 246/324/10 244/310/10 77/325/10 80/326/10 
f 243/316/7 239/315/7 81/81/7 84/84/7 
f 239/285/8 238/284/8 82/327/8 81/328/8 
f 238/329/9 245/330/9 83/83/9 82/82/9 
f 245/319/10 243/305/10 84/331/10 83/332/10 
f 246/323/7 245/322/7 88/88/7 87/87/7 
f 245/319/8 247/333/8 89/334/8 88/335/8 
f 247/336/9 248/337/9 90/90/9 89/89/9 
f 248/338/10 246/324/10 87/339/10 90/340/10 
f 245/330/7 238/329/7 91/91/7 94/94/7 
f 238/284/8 237/283/8 92/341/8 91/342/8 
f 237/343/9 247/344/9 93/93/9 92/92/9 
f 247/333/10 245/319/10 94/345/10 93/346/10 
f 248/337/7 247/336/7 98/98/7 97/97/7 
f 247/333/8 132/347/8 99/348/8 98/349/8 
f 132/134/9 131/133/9 100/100/9 99/99/9 
f 131/350/10 248/338/10 97/351/10 100/352/10 
f 247/344/7 237/343/7 101/101/7 104/104/7 
f 237/283/8 128/282/8 102/353/8 101/354/8 
f 128/227/9 132/226/9 103/103/9 102/102/9 
f 132/347/10 247/333/10 104/355/10 103/356/10 
f 106/193/7 112/192/7 167/171/7 170/174/7 
f 112/296/8 242/295/8 168/357/8 167/358/8 
f 242/359/9 223/360/9 169/173/9 168/172/9 
f 223/248/10 106/247/10 170/361/10 169/362/10 
f 223/360/7 242/359/7 171/175/7 174/178/7 
f 242/295/8 244/310/8 172/363/8 171/364/8 
f 244/365/9 224/366/9 173/177/9 172/176/9 
f 224/249/10 223/248/10 174/367/10 173/368/10 
f 224/366/7 244/365/7 175/179/7 178/182/7 
f 244/310/8 246/324/8 176/369/8 175/370/8 
f 246/371/9 225/372/9 177/181/9 176/180/9 
f 225/250/10 224/249/10 178/373/10 177/374/10 
f 225/372/7 246/371/7 179/183/7 182/186/7 
f 246/324/8 248/338/8 180/375/8 179/376/8 
f 248/377/9 226/378/9 181/185/9 180/184/9 
f 226/251/10 225/250/10 182/379/10 181/380/10 
f 226/378/7 248/377/7 183/187/7 186/190/7 
f 248/338/8 131/350/8 184/381/8 183/382/8 
f 131/137/9 134/136/9 185/189/9 184/188/9 
f 134/252/10 226/251/10 186/383/10 185/384/10 
f 109/385/11 249/386/11 6/387/11 5/388/11 
f 249/389/12 250/390/12 7/7/12 6/6/12 
f 250/391/13 110/392/13 8/393/13 7/394/13 
f 110/110/14 109/109/14 5/395/14 8/396/14 
f 110/392/11 250/391/11 9/397/11 12/398/11 
f 250/399/12 233/400/12 10/10/12 9/9/12 
f 233/265/13 113/264/13 11/401/13 10/402/13 
f 113/113/14 110/116/14 12/403/14 11/404/14 
f 249/386/11 251/405/11 16/406/11 15/407/11 
f 251/408/12 252/409/12 17/17/12 16/16/12 
f 252/410/13 250/391/13 18/411/13 17/412/13 
f 250/390/14 249/389/14 15/15/14 18/18/14 
f 250/391/11 252/410/11 19/413/11 22/414/11 
f 252/415/12 234/416/12 20/20/12 19/19/12 
f 234/266/13 233/265/13 21/417/13 20/418/13 
f 233/400/14 250/399/14 22/22/14 21/21/14 
f 251/405/11 253/419/11 26/420/11 25/421/11 
f 253/422/12 254/423/12 27/27/12 26/26/12 
f 254/424/13 252/410/13 28/425/13 27/426/13 
f 252/409/14 251/408/14 25/25/14 28/28/14 
f 252/410/11 254/424/11 29/427/11 32/428/11 
f 254/429/12 235/430/12 30/30/12 29/29/12 
f 235/267/13 234/266/13 31/431/13 30/432/13 
f 234/416/14 252/415/14 32/32/14 31/31/14 
f 253/419/11 255/433/11 36/434/11 35/435/11 
f 255/436/12 256/437/12 37/37/12 36/36/12 
f 256/438/13 254/424/13 38/439/13 37/440/13 
f 254/423/14 253/422/14 35/35/14 38/38/14 
f 254/424/11 256/438/11 39/441/11 42/442/11 
f 256/443/12 236/444/12 40/40/12 39/39/12 
f 236/268/13 235/267/13 41/445/13 40/446/13 
f 235/430/14 254/429/14 42/42/14 41/41/14 
f 255/433/11 130/447/11 46/448/11 45/449/11 
f 130/132/12 129/131/12 47/450/12 46/451/12 
f 129/452/13 256/438/13 48/453/13 47/454/13 
f 256/437/14 255/436/14 45/45/14 48/48/14 
f 256/438/11 129/452/11 49/455/11 52/456/11 
f 129/225/12 127/228/12 50/457/12 49/458/12 
f 127/269/13 236/268/13 51/459/13 50/460/13 
f 236/444/14 256/443/14 52/52/14 51/51/14 
f 222/461/12 249/462/12 147/151/12 150/154/12 
f 249/386/13 109/385/13 148/463/13 147/464/13 
f 109/191/14 105/194/14 149/465/14 148/466/14 
f 105/242/11 222/241/11 150/467/11 149/468/11 
f 221/469/12 251/470/12 151/155/12 154/158/12 
f 251/405/13 249/386/13 152/471/13 151/472/13 
f 249/462/14 222/461/14 153/157/14 152/156/14 
f 222/241/11 221/240/11 154/473/11 153/474/11 
f 220/475/12 253/476/12 155/159/12 158/162/12 
f 253/419/13 251/405/13 156/477/13 155/478/13 
f 251/470/14 221/469/14 157/161/14 156/160/14 
f 221/240/11 220/239/11 158/479/11 157/480/11 
f 219/481/12 255/482/12 159/163/12 162/166/12 
f 255/433/13 253/419/13 160/483/13 159/484/13 
f 253/476/14 220/475/14 161/165/14 160/164/14 
f 220/239/11 219/238/11 162/485/11 161/486/11 
f 133/135/12 130/138/12 163/487/12 166/488/12 
f 130/447/13 255/433/13 164/489/13 163/490/13 
f 255/482/14 219/481/14 165/169/14 164/168/14 
f 219/238/11 133/237/11 166/491/11 165/492/11 
f 108/108/3 107/107/3 146/150/3 145/149/3 
f 107/107/3 56/246/3 232/260/3 146/150/3 
f 257/493/2 258/494/2 259/495/2 260/496/2 
f 258/494/2 261/497/2 262/498/2 259/495/2 
f 261/497/2 263/499/2 264/500/2 262/498/2 
f 263/499/2 265/501/2 266/502/2 264/500/2 
f 265/501/2 267/503/2 268/504/2 266/502/2 
f 96/253/5 188/196/5 138/142/5 228/256/5 
f 188/196/5 187/195/5 135/139/5 138/142/5 
f 187/195/5 43/236/5 218/234/5 135/139/5 
f 269/505/1 270/506/1 271/507/1 272/508/1 
f 270/506/1 273/509/1 274/510/1 271/507/1 
f 273/509/1 275/511/1 276/512/1 274/510/1 
f 275/511/1 277/513/1 278/514/1 276/512/1 
f 277/513/1 279/515/1 280/516/1 278/514/1 
f 4/243/3 108/108/3 145/149/3 214/230/3 
f 86/86/4 96/96/4 267/503/4 265/501/4 
f 96/253/5 228/256/5 268/504/5 267/517/5 
f 228/256/6 227/255/6 266/502/6 268/504/6 
f 227/255/6 229/257/6 264/500/6 266/502/6 
f 229/257/6 230/258/6 262/498/6 264/500/6 
f 230/258/6 231/259/6 259/495/6 262/498/6 
f 231/259/6 232/260/6 260/496/6 259/495/6 
f 232/260/3 56/246/3 257/518/3 260/496/3 
f 56/56/4 55/55/4 258/494/4 257/493/4 
f 55/55/4 66/66/4 261/497/4 258/494/4 
f 66/66/4 76/76/4 263/499/4 261/497/4 
f 76/76/4 86/86/4 265/501/4 263/499/4 
f 1/1/4 4/4/4 279/515/4 277/513/4 
f 4/243/3 214/230/3 280/516/3 279/519/3 
f 214/230/6 213/229/6 278/514/6 280/516/6 
f 213/229/6 215/231/6 276/512/6 278/514/6 
f 215/231/6 216/232/6 274/510/6 276/512/6 
f 216/232/6 217/233/6 271/507/6 274/510/6 
f 217/233/6 218/234/6 272/508/6 271/507/6 
f 218/234/5 43/236/5 269/520/5 272/508/5 
f 43/43/4 33/33/4 270/506/4 269/505/4 
f 33/33/4 23/23/4 273/509/4 270/506/4 
f 23/23/4 13/13/4 275/511/4 273/509/4 
f 13/13/4 1/1/4 277/513/4 275/511/4 
# 278 polygons

